# xmcd
#
# Track frame offsets: 
#        150
#        12470
#        24680
#        38250
#        62525
#        77505
#        92987
#        106547
#        116350
#        129262
#        143410
#        158212
#        167227
#        180195
#        193650
#        207380
#        219615
#        239792
#        257860
#        270632
#
# Disc length: 3804 seconds
#
# Revision: 3
# Processed by: cddbd v1.5.2PL0 Copyright (c) Steve Scherf et al.
# Submitted via: ExactAudioCopy v1.0b6
#
DISCID=090eda14
DTITLE=Sonny Terry and Brownie McGhee - "The Duo"
DYEAR=1996
DGENRE=Blues
TTITLE0=Mean old Frisco) (1952)
TTITLE1=The woman is killing me) (1952)
TTITLE2=Lightnin's blues) (1952)
TTITLE3=Brownie's blues) (1958)
TTITLE4=Sonny's blues (1958)
TTITLE5=I've been treated wrong (1958)
TTITLE6=Climbing on top of the hill (1958)
TTITLE7=Fox chase (1958)
TTITLE8=Going down slow (1950)
TTITLE9=Lost John) (1954)
TTITLE10=Can't help myself) (1957)
TTITLE11=Crow Jane blues) (1959)
TTITLE12=Living with the blues (1959)
TTITLE13=Back to New Orleans (1959)
TTITLE14=I'm prison bound (1959)
TTITLE15=Freight train (1959)
TTITLE16=Sweet woman blues (1961)
TTITLE17=Key to the highway (1963)
TTITLE18=Walk on (1963)
TTITLE19=Rock island line (1967)
EXTD=
EXTT0=
EXTT1=
EXTT2=
EXTT3=
EXTT4=
EXTT5=
EXTT6=
EXTT7=
EXTT8=
EXTT9=
EXTT10=
EXTT11=
EXTT12=
EXTT13=
EXTT14=
EXTT15=
EXTT16=
EXTT17=
EXTT18=
EXTT19=
PLAYORDER=
